<svg height="56" viewBox="0 0 56 56" width="56" xmlns="http://www.w3.org/2000/svg"><path d="m6.1797 17.8164h43.6406c1.0545 0 1.8984-.8203 1.8984-1.875s-.8439-1.8984-1.8984-1.8984h-43.6406c-1.0546 0-1.8984.8437-1.8984 1.8984s.8438 1.875 1.8984 1.875zm4.9219 12.0703h33.9141c1.0547 0 1.8751-.8203 1.8751-1.875s-.8204-1.8984-1.8751-1.8984h-33.9141c-1.0547 0-1.875.8437-1.875 1.8984s.8203 1.875 1.875 1.875zm4.8047 12.0703h24.3047c1.0547 0 1.875-.8203 1.875-1.875s-.8203-1.8984-1.875-1.8984h-24.3047c-1.0547 0-1.875.8437-1.875 1.8984s.8203 1.875 1.875 1.875z"/></svg>